<?xml version="1.0" encoding="utf-8"?>
<!-- Generator: Adobe Illustrator 27.5.0, SVG Export Plug-In . SVG Version: 6.00 Build 0)  -->
<svg version="1.1" xmlns="http://www.w3.org/2000/svg" xmlns:xlink="http://www.w3.org/1999/xlink" x="0px" y="0px"
	 viewBox="0 0 750 500" style="enable-background:new 0 0 750 500;" xml:space="preserve">
<g id="Background_Complete">
	<g>
		
			<rect x="242.397" y="107.14" transform="matrix(0.9775 -0.2111 0.2111 0.9775 -24.7059 60.4454)" style="fill:#F5F5F5;" width="56.698" height="77.587"/>
	</g>
	<g>
		<g>
			<rect x="365.235" y="70.854" style="fill:#F5F5F5;" width="188.888" height="122.832"/>
		</g>
		<g>
			<g>
				
					<ellipse transform="matrix(0.2323 -0.9726 0.9726 0.2323 229.2921 544.6603)" style="fill:#E0E0E0;" cx="459.68" cy="127.077" rx="25.703" ry="25.703"/>
			</g>
			<g>
				<polygon style="fill:#F5F5F5;" points="468.318,127.077 461.605,130.953 454.893,134.828 454.893,127.077 454.893,119.327 
					461.605,123.202 				"/>
			</g>
		</g>
		<g>
			<rect x="365.235" y="171.622" style="fill:#E0E0E0;" width="188.888" height="22.065"/>
		</g>
		<g>
			<polygon style="fill:#F5F5F5;" points="383.592,182.654 380.868,184.227 378.144,185.8 378.144,182.654 378.144,179.509 
				380.868,181.082 			"/>
		</g>
		<g>
			<rect x="399.248" y="182.154" style="fill:#F5F5F5;" width="139.33" height="1"/>
		</g>
		<g>
			<path style="fill:#F5F5F5;" d="M402.069,182.654c0,1.147-0.93,2.077-2.077,2.077s-2.077-0.93-2.077-2.077s0.93-2.077,2.077-2.077
				S402.069,181.507,402.069,182.654z"/>
		</g>
	</g>
	<g>
		<g>
			<g>
				<g>
					<path style="fill:#F5F5F5;" d="M686.832,333.599H504.425c-3.03,0-5.487-2.457-5.487-5.487V164.809
						c0-3.03,2.457-5.487,5.487-5.487h182.407c3.03,0,5.487,2.457,5.487,5.487v163.302
						C692.319,331.142,689.862,333.599,686.832,333.599z"/>
				</g>
				<g>
					<path style="fill:#EBEBEB;" d="M692.319,178.781H498.938v-13.05c0-3.54,2.87-6.409,6.409-6.409H685.91
						c3.54,0,6.409,2.87,6.409,6.409V178.781z"/>
				</g>
				<g>
					<circle style="fill:#FAFAFA;" cx="510.738" cy="169.084" r="1.525"/>
				</g>
				<g>
					<path style="fill:#FAFAFA;" d="M521.416,169.084c0,0.842-0.683,1.525-1.525,1.525c-0.842,0-1.525-0.683-1.525-1.525
						c0-0.842,0.683-1.525,1.525-1.525C520.733,167.559,521.416,168.242,521.416,169.084z"/>
				</g>
				<g>
					<circle style="fill:#FAFAFA;" cx="529.043" cy="169.084" r="1.525"/>
				</g>
			</g>
			<g>
				<rect x="596.044" y="194.469" style="fill:#FAFAFA;" width="73.022" height="2.643"/>
			</g>
			<g>
				<rect x="596.044" y="205.345" style="fill:#FAFAFA;" width="73.022" height="2.643"/>
			</g>
			<g>
				<rect x="596.044" y="216.22" style="fill:#FAFAFA;" width="73.022" height="2.643"/>
			</g>
			<g>
				<rect x="596.044" y="227.096" style="fill:#FAFAFA;" width="73.022" height="2.643"/>
			</g>
			<g>
				<rect x="596.044" y="237.971" style="fill:#FAFAFA;" width="36.511" height="2.643"/>
			</g>
			<g>
				
					<rect x="518.486" y="259.363" transform="matrix(-1 -1.224647e-16 1.224647e-16 -1 1109.9927 521.3687)" style="fill:#FAFAFA;" width="73.021" height="2.643"/>
			</g>
			<g>
				
					<rect x="518.486" y="270.238" transform="matrix(-1 -1.224647e-16 1.224647e-16 -1 1109.9927 543.1197)" style="fill:#FAFAFA;" width="73.021" height="2.643"/>
			</g>
			<g>
				
					<rect x="518.486" y="281.114" transform="matrix(-1 -1.224647e-16 1.224647e-16 -1 1109.9927 564.8708)" style="fill:#FAFAFA;" width="73.021" height="2.643"/>
			</g>
			<g>
				
					<rect x="518.486" y="291.989" transform="matrix(-1 -1.224647e-16 1.224647e-16 -1 1109.9927 586.6219)" style="fill:#FAFAFA;" width="73.021" height="2.643"/>
			</g>
			<g>
				
					<rect x="554.996" y="302.865" transform="matrix(-1 -1.224647e-16 1.224647e-16 -1 1146.5034 608.373)" style="fill:#FAFAFA;" width="36.511" height="2.643"/>
			</g>
		</g>
		<g>
			<g>
				<rect x="604.122" y="256.44" style="fill:#FAFAFA;" width="62.486" height="51.991"/>
			</g>
			<g>
				<polygon style="fill:#EBEBEB;" points="604.016,292.731 622.481,279.792 635.366,288.706 655.629,271.56 666.609,282.435 
					666.609,308.431 604.122,308.431 				"/>
			</g>
			<g>
				<circle style="fill:#EBEBEB;" cx="636.446" cy="271.56" r="5.234"/>
			</g>
		</g>
		<g>
			<g>
				<rect x="518.486" y="192.868" style="fill:#FAFAFA;" width="62.486" height="51.991"/>
			</g>
			<g>
				<polygon style="fill:#EBEBEB;" points="518.379,229.159 536.844,216.22 549.729,225.134 569.993,207.988 580.972,218.863 
					580.972,244.859 518.486,244.859 				"/>
			</g>
			<g>
				<circle style="fill:#EBEBEB;" cx="550.809" cy="207.988" r="5.234"/>
			</g>
		</g>
	</g>
	<g>
		<g>
			<g>
				<g>
					<path style="fill:#F5F5F5;" d="M286.631,366.552H63.288c-2.569,0-4.651-2.082-4.651-4.651V240.543h232.644v121.359
						C291.282,364.47,289.199,366.552,286.631,366.552z"/>
				</g>
				<g>
					<rect x="58.638" y="240.543" style="fill:#EBEBEB;" width="232.644" height="23.41"/>
				</g>
				<g>
					<circle style="fill:#FAFAFA;" cx="72.834" cy="252.287" r="1.835"/>
				</g>
				<g>
					<circle style="fill:#FAFAFA;" cx="83.844" cy="252.287" r="1.835"/>
				</g>
				<g>
					<circle style="fill:#FAFAFA;" cx="94.855" cy="252.287" r="1.835"/>
				</g>
			</g>
			<g>
				<rect x="175.46" y="282.826" style="fill:#EBEBEB;" width="87.847" height="3.18"/>
			</g>
			<g>
				<rect x="175.46" y="295.909" style="fill:#EBEBEB;" width="87.847" height="3.18"/>
			</g>
			<g>
				<rect x="175.46" y="308.993" style="fill:#EBEBEB;" width="87.847" height="3.18"/>
			</g>
			<g>
				<rect x="175.46" y="322.077" style="fill:#EBEBEB;" width="87.847" height="3.18"/>
			</g>
			<g>
				<rect x="175.46" y="335.16" style="fill:#EBEBEB;" width="43.924" height="3.18"/>
			</g>
		</g>
		<g>
			<g>
				<rect x="77.989" y="280.598" style="fill:#FAFAFA;" width="75.173" height="62.547"/>
			</g>
			<g>
				<polygon style="fill:#EBEBEB;" points="77.861,324.257 100.075,308.692 115.576,319.416 139.954,298.788 153.163,311.872 
					153.163,343.146 77.989,343.146 				"/>
			</g>
			<g>
				<path style="fill:#EBEBEB;" d="M123.172,298.788c0,3.478-2.819,6.297-6.297,6.297c-3.478,0-6.297-2.819-6.297-6.297
					c0-3.478,2.819-6.297,6.297-6.297C120.353,292.492,123.172,295.311,123.172,298.788z"/>
			</g>
		</g>
	</g>
</g>
<g id="Background_Simple" style="display:none;">
	<path style="display:inline;fill:#F5F5F5;" d="M343.325,213.015c-31.273,7.577-48.608-0.953-76.446-8.289
		c-27.839-7.336-58.663-14.016-84.372-1.061c-30.45,15.345-42.655,54.13-38.153,87.93c4.369,32.8,40.714,62.007,69.62,78.112
		c21.831,12.164,47.561,14.793,72.504,16.334c67.715,4.183,119.651,4.277,182.276-21.817
		c62.625-26.094,117.064-79.738,128.691-146.578c4.913-28.243,1.408-59.337-16.306-81.876
		c-22.773-28.977-65.446-37.456-100.506-26.095c-35.06,11.361-62.766,39.401-81.286,71.265
		C386.941,202.286,366.913,205.719,343.325,213.015"/>
</g>
<g id="Document">
	<g>
		<g>
			<g>
				
					<rect x="235.406" y="120.833" transform="matrix(0.9775 -0.2111 0.2111 0.9775 -27.754 59.2777)" style="fill:#FFFFFF;" width="56.698" height="77.587"/>
			</g>
			<g>
				<g>
					<path style="fill:#263238;" d="M299.655,191.561c0,0-0.037-0.128-0.094-0.369c-0.059-0.256-0.14-0.609-0.245-1.069
						c-0.213-0.955-0.522-2.34-0.922-4.137c-0.798-3.624-1.958-8.894-3.426-15.563c-2.91-13.34-7.038-32.26-11.923-54.651
						l0.28,0.181c-16.688,3.612-35.532,7.69-55.409,11.992l-0.006,0.001l0.2-0.309c6.1,28.331,11.748,54.561,16.332,75.848
						l-0.252-0.163c16.777-3.576,30.613-6.525,40.272-8.585c4.83-1.019,8.613-1.817,11.208-2.365
						c1.284-0.267,2.27-0.471,2.955-0.614C299.296,191.623,299.655,191.561,299.655,191.561s-0.323,0.085-0.976,0.234
						c-0.673,0.151-1.643,0.369-2.906,0.652c-2.579,0.57-6.338,1.401-11.139,2.461c-9.68,2.118-23.544,5.151-40.355,8.829
						l-0.207,0.045l-0.045-0.208c-4.61-21.281-10.29-47.504-16.426-75.828l-0.055-0.255l0.255-0.055l0.006-0.001
						c19.88-4.285,38.728-8.347,55.419-11.944l0.231-0.05l0.049,0.231c4.804,22.472,8.864,41.462,11.726,54.851
						c1.41,6.658,2.525,11.919,3.291,15.537c0.372,1.782,0.659,3.156,0.857,4.103c0.091,0.451,0.162,0.798,0.212,1.049
						C299.64,191.447,299.655,191.561,299.655,191.561z"/>
				</g>
			</g>
		</g>
		<g>
			<g>
				<path style="fill:#263238;" d="M265.041,135.615c0.03,0.141-5.975,1.557-13.41,3.163c-7.439,1.607-13.491,2.795-13.522,2.654
					c-0.03-0.141,5.973-1.556,13.412-3.163C258.956,136.663,265.01,135.474,265.041,135.615z"/>
			</g>
		</g>
		<g>
			<g>
				<path style="fill:#263238;" d="M281.03,139.059c0.03,0.141-9.235,2.261-20.693,4.736c-11.462,2.475-20.775,4.367-20.805,4.227
					c-0.03-0.141,9.233-2.26,20.695-4.736C271.685,140.811,280.999,138.918,281.03,139.059z"/>
			</g>
		</g>
		<g>
			<g>
				<path style="fill:#263238;" d="M282.515,145.934c0.03,0.141-9.235,2.261-20.693,4.735c-11.462,2.476-20.775,4.368-20.805,4.227
					c-0.03-0.14,9.233-2.26,20.695-4.736C273.169,147.686,282.484,145.793,282.515,145.934z"/>
			</g>
		</g>
		<g>
			<g>
				<path style="fill:#263238;" d="M283.999,152.809c0.03,0.141-9.235,2.261-20.693,4.736c-11.462,2.475-20.775,4.367-20.805,4.227
					c-0.03-0.141,9.233-2.26,20.695-4.736C274.654,154.561,283.969,152.668,283.999,152.809z"/>
			</g>
		</g>
		<g>
			<g>
				<path style="fill:#263238;" d="M285.484,159.684c0.03,0.141-9.235,2.261-20.693,4.736c-11.462,2.475-20.775,4.368-20.805,4.227
					c-0.03-0.141,9.233-2.26,20.695-4.736C276.139,161.436,285.454,159.543,285.484,159.684z"/>
			</g>
		</g>
		<g>
			<g>
				<path style="fill:#263238;" d="M286.969,166.558c0.03,0.141-9.235,2.261-20.693,4.736c-11.462,2.475-20.775,4.367-20.805,4.227
					c-0.03-0.141,9.233-2.26,20.695-4.736C277.624,168.311,286.939,166.418,286.969,166.558z"/>
			</g>
		</g>
		<g>
			<g>
				<path style="fill:#263238;" d="M288.454,173.433c0.03,0.141-9.235,2.261-20.693,4.736c-11.462,2.475-20.775,4.368-20.805,4.227
					c-0.03-0.141,9.233-2.26,20.695-4.736C279.108,175.185,288.423,173.293,288.454,173.433z"/>
			</g>
		</g>
		<g>
			<g>
				<path style="fill:#263238;" d="M270.746,184.453c0.03,0.141-4.939,1.333-11.097,2.663c-6.161,1.331-11.178,2.295-11.208,2.154
					c-0.03-0.141,4.938-1.333,11.098-2.663C265.698,185.277,270.716,184.313,270.746,184.453z"/>
			</g>
		</g>
	</g>
</g>
<g id="Pointer">
	<g>
		<g>
			<polygon style="fill:#E8505B;" points="542.569,309.846 556.752,346.263 562.666,336.71 570.858,347.468 580.63,338.175 
				571.319,329.204 579.912,323.392 			"/>
		</g>
		<g>
			<g>
				<path style="fill:#263238;" d="M537.23,315.229c0.077,0.122-2.238,1.727-5.169,3.586c-2.933,1.86-5.372,3.268-5.449,3.147
					c-0.077-0.121,2.237-1.727,5.17-3.587C534.714,316.517,537.153,315.108,537.23,315.229z"/>
			</g>
		</g>
		<g>
			<g>
				<path style="fill:#263238;" d="M538.332,307.894c-0.023,0.066-0.895-0.157-2.279-0.601c-1.384-0.443-3.278-1.117-5.333-1.951
					c-2.057-0.832-3.888-1.653-5.203-2.271c-1.314-0.62-2.11-1.039-2.081-1.105c0.029-0.066,0.877,0.234,2.227,0.767
					c1.527,0.618,3.297,1.335,5.252,2.126c1.958,0.777,3.732,1.48,5.262,2.087C537.526,307.478,538.356,307.825,538.332,307.894z"/>
			</g>
		</g>
		<g>
			<g>
				<path style="fill:#263238;" d="M542.611,291.359c0.07-0.012,0.27,0.755,0.516,2.009c0.246,1.254,0.532,2.997,0.775,4.932
					c0.242,1.935,0.395,3.695,0.465,4.971c0.071,1.276,0.065,2.069-0.005,2.074c-0.147,0.011-0.491-3.124-0.977-6.981
					C542.905,294.509,542.465,291.385,542.611,291.359z"/>
			</g>
		</g>
		<g>
			<g>
				<path style="fill:#263238;" d="M562.244,299.507c0.06,0.146-2.567,1.277-5.524,3.171c-2.96,1.892-5.299,3.552-5.394,3.419
					c-0.042-0.057,0.496-0.534,1.41-1.248c0.915-0.71,2.204-1.666,3.707-2.612C559.445,300.315,562.204,299.383,562.244,299.507z"/>
			</g>
		</g>
	</g>
</g>
<g id="Plus">
	<g>
		<g>
			<g>
				<path style="fill:#263238;" d="M212.605,316.047c-0.093,0.009,0.032-1.618-0.666-4.405c-0.327-1.395-0.988-3.041-2.024-4.785
					c-1.044-1.736-2.546-3.548-4.587-5.084c-2.034-1.521-4.598-2.814-7.556-3.334c-2.937-0.501-6.251-0.407-9.406,0.795
					c-1.588,0.552-3.119,1.387-4.526,2.44c-0.727,0.5-1.362,1.125-2.028,1.726c-0.601,0.667-1.233,1.318-1.751,2.075
					c-2.201,2.927-3.441,6.691-3.477,10.569c0.035,3.879,1.275,7.644,3.476,10.573c0.518,0.756,1.15,1.409,1.752,2.075
					c0.666,0.602,1.301,1.227,2.029,1.727c1.407,1.054,2.939,1.888,4.527,2.44c3.155,1.202,6.469,1.296,9.407,0.794
					c2.957-0.52,5.522-1.813,7.556-3.334c2.041-1.536,3.543-3.348,4.587-5.084c1.036-1.743,1.697-3.39,2.023-4.784
					C212.638,317.665,212.512,316.038,212.605,316.047c0.009,0,0.013,0.099,0.012,0.294c-0.005,0.224-0.01,0.509-0.018,0.865
					c-0.001,0.382-0.023,0.852-0.117,1.402c-0.075,0.552-0.146,1.193-0.346,1.892c-0.3,1.418-0.941,3.098-1.97,4.884
					c-1.037,1.778-2.546,3.641-4.614,5.228c-2.061,1.572-4.674,2.914-7.7,3.466c-3.005,0.533-6.404,0.452-9.65-0.768
					c-1.633-0.562-3.21-1.413-4.659-2.492c-0.748-0.512-1.404-1.152-2.089-1.77c-0.621-0.683-1.271-1.353-1.806-2.13
					c-2.268-3.007-3.552-6.884-3.585-10.875c0.035-3.99,1.318-7.865,3.587-10.871c0.535-0.776,1.185-1.446,1.806-2.129
					c0.685-0.618,1.341-1.257,2.089-1.769c1.449-1.078,3.025-1.93,4.658-2.491c3.245-1.22,6.644-1.301,9.649-0.768
					c3.026,0.551,5.639,1.894,7.7,3.465c2.068,1.586,3.577,3.449,4.614,5.228c1.029,1.786,1.67,3.466,1.97,4.884
					c0.199,0.699,0.271,1.34,0.346,1.892c0.094,0.55,0.116,1.021,0.117,1.403c0.007,0.356,0.013,0.641,0.018,0.865
					C212.618,315.947,212.615,316.047,212.605,316.047z"/>
			</g>
		</g>
		<g>
			<g>
				<path style="fill:#263238;" d="M194.465,325.155c-0.144,0-0.26-4.078-0.26-9.108c0-5.031,0.117-9.109,0.26-9.109
					c0.144,0,0.26,4.078,0.26,9.109C194.725,321.077,194.609,325.155,194.465,325.155z"/>
			</g>
		</g>
		<g>
			<g>
				<path style="fill:#263238;" d="M203.573,316.047c0,0.144-4.078,0.26-9.108,0.26c-5.031,0-9.109-0.117-9.109-0.26
					s4.077-0.26,9.109-0.26C199.495,315.786,203.573,315.903,203.573,316.047z"/>
			</g>
		</g>
	</g>
</g>
<g id="Search_Engine">
	<g>
		<g>
			<g>
				<g>
					<path style="fill:#263238;" d="M490.951,374.686c-0.121,0.078-12.683-19.35-28.053-43.387
						c-15.376-24.046-27.738-43.595-27.617-43.672c0.121-0.077,12.68,19.346,28.056,43.391
						C478.707,355.055,491.072,374.608,490.951,374.686z"/>
				</g>
			</g>
			<g>
				<g>
					<g>
						<circle style="fill:#FFFFFF;" cx="496.406" cy="387.957" r="29.149"/>
					</g>
					<g>
						<g>
							<path style="fill:#263238;" d="M467.257,387.957c0,0-0.01-0.16-0.003-0.473c0.011-0.335,0.025-0.796,0.044-1.389
								c0.012-0.308,0.025-0.649,0.039-1.024c0.032-0.375,0.105-0.782,0.164-1.225c0.125-0.885,0.244-1.913,0.569-3.032
								c0.49-2.271,1.526-4.961,3.182-7.818c1.669-2.845,4.091-5.823,7.406-8.356c3.304-2.51,7.488-4.652,12.329-5.528
								c1.213-0.177,2.44-0.43,3.712-0.441c0.633-0.024,1.271-0.087,1.914-0.079c0.643,0.031,1.291,0.063,1.944,0.095
								c0.655,0.007,1.307,0.1,1.962,0.209c0.654,0.107,1.319,0.182,1.977,0.317c1.298,0.349,2.642,0.611,3.921,1.141
								c1.319,0.42,2.561,1.068,3.836,1.678c0.621,0.335,1.217,0.726,1.832,1.09c0.626,0.348,1.2,0.781,1.776,1.219
								c1.196,0.819,2.243,1.843,3.338,2.83c0.991,1.092,2.031,2.163,2.885,3.404c1.753,2.428,3.282,5.129,4.21,8.098
								c0.961,2.952,1.478,6.088,1.52,9.278c-0.041,3.191-0.557,6.329-1.518,9.281c-0.927,2.971-2.457,5.672-4.21,8.101
								c-0.855,1.241-1.894,2.313-2.885,3.405c-1.095,0.988-2.143,2.012-3.339,2.831c-0.576,0.438-1.149,0.871-1.776,1.22
								c-0.615,0.364-1.211,0.755-1.833,1.09c-1.276,0.61-2.518,1.258-3.837,1.678c-1.279,0.53-2.624,0.792-3.922,1.141
								c-0.658,0.134-1.324,0.21-1.978,0.317c-0.655,0.11-1.306,0.202-1.962,0.209c-0.653,0.032-1.301,0.063-1.944,0.095
								c-0.643,0.008-1.281-0.055-1.914-0.079c-1.272-0.012-2.499-0.265-3.712-0.441c-4.841-0.877-9.025-3.019-12.329-5.529
								c-3.315-2.534-5.737-5.512-7.405-8.357c-1.655-2.857-2.691-5.546-3.181-7.817c-0.324-1.119-0.443-2.146-0.569-3.031
								c-0.059-0.443-0.132-0.85-0.164-1.225c-0.014-0.375-0.027-0.716-0.039-1.024c-0.019-0.592-0.034-1.053-0.044-1.388
								C467.247,388.117,467.257,387.957,467.257,387.957s0.026,0.16,0.05,0.472c0.023,0.334,0.055,0.793,0.096,1.383
								c0.019,0.306,0.04,0.645,0.064,1.018c0.04,0.373,0.121,0.777,0.188,1.216c0.141,0.878,0.274,1.896,0.612,3.003
								c0.516,2.248,1.573,4.904,3.235,7.718c1.676,2.802,4.091,5.729,7.378,8.213c3.277,2.46,7.412,4.553,12.185,5.398
								c1.196,0.169,2.405,0.415,3.658,0.421c0.624,0.021,1.252,0.082,1.886,0.072c0.633-0.033,1.271-0.066,1.914-0.1
								c0.645-0.008,1.286-0.102,1.931-0.212c0.644-0.107,1.298-0.183,1.945-0.317c1.276-0.348,2.598-0.607,3.855-1.133
								c1.297-0.415,2.516-1.057,3.77-1.658c0.61-0.331,1.195-0.717,1.8-1.076c0.616-0.343,1.179-0.771,1.744-1.203
								c1.175-0.807,2.202-1.816,3.278-2.788c0.972-1.076,1.993-2.13,2.831-3.351c1.719-2.389,3.221-5.043,4.13-7.962
								c0.941-2.901,1.447-5.982,1.489-9.118c-0.042-3.134-0.549-6.215-1.491-9.115c-0.909-2.918-2.41-5.572-4.13-7.96
								c-0.838-1.221-1.859-2.274-2.831-3.35c-1.076-0.971-2.103-1.98-3.277-2.787c-0.565-0.432-1.128-0.859-1.744-1.202
								c-0.604-0.359-1.189-0.744-1.799-1.076c-1.253-0.601-2.473-1.243-3.769-1.658c-1.257-0.526-2.578-0.785-3.854-1.133
								c-0.647-0.134-1.302-0.21-1.945-0.317c-0.644-0.11-1.285-0.203-1.93-0.212c-0.643-0.034-1.281-0.067-1.914-0.1
								c-0.633-0.01-1.262,0.051-1.885,0.072c-1.253,0.006-2.462,0.252-3.658,0.421c-4.773,0.844-8.908,2.937-12.185,5.397
								c-3.288,2.483-5.703,5.41-7.379,8.212c-1.662,2.814-2.719,5.47-3.235,7.718c-0.337,1.107-0.471,2.125-0.612,3.004
								c-0.067,0.44-0.147,0.843-0.188,1.216c-0.023,0.373-0.045,0.712-0.064,1.018c-0.041,0.59-0.073,1.049-0.096,1.383
								C467.283,387.798,467.257,387.957,467.257,387.957z"/>
						</g>
					</g>
				</g>
				<g>
					<g>
						<polygon style="fill:#263238;" points="488.457,377.247 484.466,400.053 496.406,398.41 508.345,400.053 503.544,377.247 
													"/>
					</g>
					<g>
						<g>
							<path style="fill:#263238;" d="M501.45,377.546c-0.086,0.029-0.325-0.811-0.957-2.021c-0.318-0.6-0.774-1.279-1.434-1.85
								c-0.339-0.273-0.729-0.509-1.166-0.68c-0.444-0.151-0.926-0.24-1.43-0.248c-1.022-0.009-2,0.185-2.722,0.657
								c-0.728,0.465-1.187,1.144-1.492,1.744c-0.598,1.221-0.797,2.077-0.887,2.049c-0.048-0.011,0.016-0.884,0.554-2.207
								c0.276-0.649,0.742-1.429,1.56-1.987c0.814-0.565,1.904-0.788,2.993-0.778c0.558,0.009,1.103,0.112,1.604,0.292
								c0.495,0.2,0.931,0.478,1.299,0.793c0.717,0.656,1.163,1.406,1.452,2.051C501.392,376.663,501.5,377.532,501.45,377.546z"/>
						</g>
					</g>
				</g>
			</g>
		</g>
		<g>
			<g>
				<g>
					<path style="fill:#263238;" d="M380.088,376.638c-0.144,0-0.26-20.073-0.26-44.829c0-24.764,0.116-44.833,0.26-44.833
						c0.144,0,0.26,20.069,0.26,44.833C380.348,356.565,380.232,376.638,380.088,376.638z"/>
				</g>
			</g>
			<g>
				<g>
					<g>
						<circle style="fill:#FFFFFF;" cx="379.492" cy="388.608" r="29.149"/>
					</g>
					<g>
						<g>
							<path style="fill:#263238;" d="M350.343,388.608c0,0-0.01-0.16-0.003-0.473c0.011-0.335,0.025-0.796,0.044-1.388
								c0.012-0.308,0.025-0.649,0.039-1.024c0.032-0.375,0.105-0.782,0.164-1.225c0.125-0.885,0.244-1.913,0.569-3.032
								c0.49-2.271,1.526-4.961,3.182-7.818c1.669-2.845,4.091-5.822,7.406-8.356c3.304-2.51,7.488-4.652,12.329-5.528
								c1.213-0.177,2.44-0.43,3.712-0.441c0.633-0.024,1.271-0.087,1.914-0.079c0.643,0.031,1.291,0.063,1.944,0.095
								c0.655,0.007,1.307,0.1,1.962,0.209c0.654,0.107,1.32,0.182,1.977,0.317c1.298,0.349,2.642,0.611,3.921,1.141
								c1.319,0.42,2.561,1.068,3.836,1.678c0.621,0.335,1.217,0.726,1.832,1.09c0.626,0.349,1.2,0.781,1.776,1.219
								c1.196,0.819,2.243,1.842,3.338,2.83c0.991,1.092,2.031,2.163,2.885,3.404c1.753,2.428,3.283,5.128,4.21,8.098
								c0.961,2.952,1.478,6.088,1.52,9.278c-0.041,3.191-0.557,6.329-1.518,9.281c-0.927,2.971-2.457,5.672-4.21,8.101
								c-0.855,1.241-1.894,2.313-2.886,3.405c-1.095,0.988-2.143,2.012-3.339,2.831c-0.576,0.438-1.149,0.871-1.776,1.22
								c-0.615,0.364-1.211,0.754-1.833,1.09c-1.276,0.61-2.518,1.258-3.837,1.678c-1.279,0.53-2.624,0.792-3.922,1.141
								c-0.658,0.135-1.323,0.21-1.978,0.317c-0.655,0.109-1.306,0.202-1.962,0.209c-0.653,0.032-1.301,0.064-1.944,0.095
								c-0.643,0.008-1.281-0.055-1.914-0.079c-1.272-0.011-2.499-0.265-3.712-0.441c-4.841-0.877-9.025-3.019-12.329-5.529
								c-3.315-2.534-5.737-5.512-7.405-8.357c-1.655-2.857-2.691-5.546-3.181-7.817c-0.324-1.119-0.443-2.146-0.569-3.031
								c-0.059-0.443-0.132-0.85-0.164-1.225c-0.014-0.375-0.027-0.716-0.039-1.024c-0.019-0.592-0.034-1.053-0.044-1.388
								C350.333,388.768,350.343,388.608,350.343,388.608s0.026,0.16,0.05,0.472c0.023,0.334,0.055,0.793,0.096,1.383
								c0.019,0.306,0.04,0.645,0.064,1.018c0.04,0.373,0.121,0.777,0.188,1.216c0.141,0.878,0.274,1.896,0.612,3.004
								c0.516,2.248,1.573,4.904,3.235,7.718c1.676,2.802,4.091,5.729,7.378,8.213c3.277,2.46,7.412,4.553,12.185,5.398
								c1.196,0.169,2.405,0.415,3.658,0.421c0.624,0.021,1.252,0.082,1.886,0.072c0.633-0.033,1.271-0.066,1.914-0.1
								c0.645-0.009,1.286-0.102,1.93-0.212c0.644-0.107,1.298-0.183,1.945-0.317c1.276-0.348,2.598-0.607,3.855-1.133
								c1.297-0.415,2.516-1.057,3.77-1.658c0.61-0.331,1.195-0.717,1.8-1.076c0.616-0.343,1.179-0.771,1.744-1.203
								c1.175-0.807,2.202-1.816,3.278-2.788c0.972-1.076,1.993-2.129,2.831-3.351c1.719-2.389,3.221-5.043,4.129-7.962
								c0.941-2.901,1.447-5.983,1.489-9.118c-0.042-3.135-0.549-6.215-1.491-9.115c-0.909-2.918-2.41-5.572-4.13-7.96
								c-0.838-1.221-1.859-2.274-2.831-3.35c-1.076-0.971-2.103-1.98-3.277-2.787c-0.565-0.432-1.128-0.859-1.744-1.202
								c-0.604-0.359-1.189-0.744-1.799-1.076c-1.253-0.601-2.473-1.243-3.769-1.658c-1.257-0.526-2.578-0.785-3.854-1.133
								c-0.647-0.134-1.302-0.21-1.945-0.317c-0.644-0.11-1.285-0.203-1.93-0.212c-0.643-0.034-1.281-0.067-1.914-0.1
								c-0.633-0.01-1.262,0.051-1.885,0.072c-1.253,0.006-2.462,0.252-3.658,0.421c-4.773,0.844-8.908,2.937-12.185,5.397
								c-3.288,2.483-5.703,5.41-7.379,8.212c-1.662,2.814-2.719,5.47-3.235,7.718c-0.338,1.107-0.471,2.126-0.612,3.004
								c-0.067,0.439-0.147,0.843-0.188,1.216c-0.023,0.373-0.045,0.712-0.064,1.018c-0.041,0.59-0.073,1.049-0.096,1.383
								C350.369,388.448,350.343,388.608,350.343,388.608z"/>
						</g>
					</g>
				</g>
				<g>
					<polygon style="fill:#263238;" points="379.492,375.553 366.846,387.041 366.846,401.608 376.694,401.608 376.694,392.879 
						382.961,392.879 382.961,401.608 392.138,401.608 392.138,387.041 					"/>
				</g>
			</g>
		</g>
		<g>
			<g>
				<g>
					<path style="fill:#263238;" d="M267.251,375.703c-0.121-0.077,12.43-19.921,28.03-44.317
						c15.605-24.404,28.35-44.118,28.471-44.04c0.121,0.077-12.427,19.917-28.032,44.321
						C280.119,356.062,267.372,375.78,267.251,375.703z"/>
				</g>
			</g>
			<g>
				<g>
					<g>
						<circle style="fill:#FFFFFF;" cx="262.53" cy="388.239" r="29.149"/>
					</g>
					<g>
						<g>
							<path style="fill:#263238;" d="M291.679,388.239c0,0-0.026-0.16-0.05-0.472c-0.023-0.334-0.055-0.793-0.096-1.383
								c-0.019-0.306-0.041-0.645-0.064-1.018c-0.04-0.373-0.121-0.777-0.188-1.216c-0.141-0.878-0.275-1.897-0.612-3.004
								c-0.517-2.248-1.573-4.904-3.235-7.718c-1.676-2.802-4.091-5.729-7.379-8.212c-3.277-2.46-7.412-4.552-12.185-5.397
								c-1.196-0.169-2.405-0.415-3.658-0.421c-0.624-0.021-1.252-0.082-1.885-0.072c-0.633,0.033-1.271,0.066-1.914,0.1
								c-0.645,0.009-1.286,0.102-1.93,0.212c-0.643,0.107-1.298,0.183-1.945,0.317c-1.276,0.348-2.598,0.607-3.854,1.133
								c-1.297,0.415-2.516,1.057-3.769,1.658c-0.61,0.331-1.195,0.717-1.799,1.076c-0.616,0.343-1.179,0.771-1.744,1.202
								c-1.175,0.807-2.202,1.816-3.278,2.787c-0.972,1.076-1.993,2.129-2.831,3.35c-1.72,2.388-3.221,5.042-4.13,7.96
								c-0.942,2.9-1.449,5.98-1.491,9.115c0.041,3.135,0.547,6.217,1.489,9.118c0.908,2.919,2.41,5.573,4.13,7.962
								c0.838,1.221,1.859,2.275,2.831,3.351c1.076,0.972,2.103,1.981,3.278,2.788c0.565,0.432,1.128,0.859,1.744,1.202
								c0.604,0.359,1.189,0.745,1.8,1.076c1.253,0.601,2.473,1.243,3.77,1.658c1.257,0.526,2.579,0.785,3.855,1.133
								c0.647,0.134,1.302,0.21,1.945,0.317c0.644,0.11,1.285,0.203,1.93,0.212c0.643,0.034,1.281,0.067,1.914,0.1
								c0.633,0.01,1.262-0.051,1.886-0.072c1.253-0.006,2.462-0.253,3.658-0.421c4.773-0.845,8.908-2.938,12.185-5.398
								c3.287-2.484,5.703-5.41,7.378-8.213c1.662-2.814,2.718-5.47,3.235-7.718c0.337-1.107,0.471-2.125,0.612-3.004
								c0.067-0.439,0.147-0.843,0.188-1.216c0.023-0.373,0.045-0.712,0.064-1.018c0.041-0.59,0.073-1.049,0.096-1.383
								C291.653,388.399,291.679,388.239,291.679,388.239s0.01,0.16,0.003,0.472c-0.011,0.335-0.025,0.796-0.044,1.388
								c-0.012,0.308-0.025,0.649-0.039,1.024c-0.032,0.375-0.105,0.782-0.164,1.225c-0.125,0.885-0.244,1.913-0.569,3.031
								c-0.49,2.271-1.526,4.961-3.181,7.817c-1.669,2.845-4.09,5.823-7.405,8.357c-3.304,2.51-7.488,4.653-12.329,5.53
								c-1.213,0.176-2.44,0.43-3.712,0.441c-0.633,0.024-1.271,0.087-1.914,0.079c-0.643-0.031-1.291-0.063-1.944-0.095
								c-0.655-0.007-1.307-0.1-1.962-0.209c-0.654-0.107-1.32-0.182-1.978-0.317c-1.298-0.349-2.643-0.611-3.922-1.141
								c-1.319-0.42-2.561-1.068-3.837-1.678c-0.621-0.336-1.218-0.726-1.833-1.09c-0.626-0.349-1.201-0.782-1.776-1.22
								c-1.196-0.819-2.244-1.843-3.339-2.831c-0.992-1.092-2.031-2.164-2.886-3.405c-1.753-2.429-3.283-5.13-4.21-8.101
								c-0.961-2.953-1.477-6.09-1.518-9.281c0.042-3.19,0.559-6.326,1.52-9.278c0.928-2.97,2.457-5.67,4.21-8.098
								c0.854-1.241,1.894-2.312,2.885-3.404c1.095-0.988,2.143-2.011,3.338-2.83c0.575-0.438,1.149-0.871,1.776-1.219
								c0.615-0.364,1.211-0.755,1.833-1.09c1.275-0.61,2.517-1.258,3.836-1.678c1.279-0.53,2.623-0.792,3.921-1.141
								c0.658-0.135,1.323-0.21,1.978-0.317c0.655-0.109,1.306-0.202,1.962-0.209c0.653-0.032,1.301-0.064,1.944-0.095
								c0.643-0.008,1.281,0.055,1.914,0.079c1.272,0.011,2.499,0.264,3.712,0.441c4.841,0.876,9.025,3.018,12.329,5.528
								c3.315,2.534,5.737,5.512,7.406,8.356c1.655,2.857,2.691,5.547,3.182,7.818c0.324,1.119,0.444,2.146,0.569,3.032
								c0.059,0.443,0.132,0.85,0.164,1.225c0.014,0.375,0.027,0.716,0.039,1.024c0.019,0.592,0.034,1.053,0.044,1.389
								C291.689,388.079,291.679,388.239,291.679,388.239z"/>
						</g>
					</g>
				</g>
				<g>
					<g>
						<rect x="250.916" y="373.064" style="fill:#263238;" width="22.886" height="30.349"/>
					</g>
					<g>
						<g>
							<g>
								<path style="fill:#455A64;" d="M263.474,377.912c0,0.144-1.682,0.26-3.758,0.26c-2.076,0-3.758-0.117-3.758-0.26
									c0-0.144,1.682-0.26,3.758-0.26C261.791,377.651,263.474,377.768,263.474,377.912z"/>
							</g>
						</g>
						<g>
							<g>
								<path style="fill:#455A64;" d="M270.099,382.18c0,0.144-3.365,0.26-7.515,0.26c-4.152,0-7.516-0.117-7.516-0.26
									c0-0.144,3.364-0.26,7.516-0.26C266.734,381.92,270.099,382.036,270.099,382.18z"/>
							</g>
						</g>
						<g>
							<g>
								<path style="fill:#455A64;" d="M270.099,384.775c0,0.144-3.365,0.26-7.515,0.26c-4.152,0-7.516-0.117-7.516-0.26
									s3.364-0.26,7.516-0.26C266.734,384.515,270.099,384.631,270.099,384.775z"/>
							</g>
						</g>
						<g>
							<g>
								<path style="fill:#455A64;" d="M270.099,387.37c0,0.144-3.365,0.26-7.515,0.26c-4.152,0-7.516-0.117-7.516-0.26
									s3.364-0.26,7.516-0.26C266.734,387.11,270.099,387.226,270.099,387.37z"/>
							</g>
						</g>
						<g>
							<g>
								<path style="fill:#455A64;" d="M270.099,389.965c0,0.144-3.365,0.26-7.515,0.26c-4.152,0-7.516-0.117-7.516-0.26
									s3.364-0.26,7.516-0.26C266.734,389.705,270.099,389.821,270.099,389.965z"/>
							</g>
						</g>
						<g>
							<g>
								<path style="fill:#455A64;" d="M270.099,392.56c0,0.144-3.365,0.26-7.515,0.26c-4.152,0-7.516-0.117-7.516-0.26
									c0-0.144,3.364-0.26,7.516-0.26C266.734,392.299,270.099,392.416,270.099,392.56z"/>
							</g>
						</g>
						<g>
							<g>
								<path style="fill:#455A64;" d="M270.099,395.155c0,0.144-3.365,0.26-7.515,0.26c-4.152,0-7.516-0.117-7.516-0.26
									c0-0.144,3.364-0.26,7.516-0.26C266.734,394.894,270.099,395.011,270.099,395.155z"/>
							</g>
						</g>
						<g>
							<g>
								<path style="fill:#455A64;" d="M270.099,397.75c0,0.144-3.365,0.26-7.515,0.26c-4.152,0-7.516-0.117-7.516-0.26
									c0-0.144,3.364-0.26,7.516-0.26C266.734,397.489,270.099,397.606,270.099,397.75z"/>
							</g>
						</g>
					</g>
				</g>
			</g>
		</g>
		<g>
			<g>
				<g>
					<g>
						<path style="fill:#FFFFFF;" d="M514.18,288.09H256.108c-13.139,0-23.79-10.651-23.79-23.79v-2.608
							c0-13.139,10.651-23.79,23.79-23.79H514.18c13.139,0,23.791,10.651,23.791,23.79v2.608
							C537.97,277.439,527.319,288.09,514.18,288.09z"/>
					</g>
					<g>
						<path style="fill:#E8505B;" d="M470.251,237.445v50.645h42.703c13.985,0,25.322-11.337,25.322-25.322l0,0
							c0-13.985-11.337-25.322-25.322-25.322H470.251z"/>
					</g>
					<g>
						<g>
							<g>
								<path style="fill:#FFFFFF;" d="M509.99,261.361c-0.069,0.005-0.01-0.953-0.433-2.586c-0.418-1.601-1.493-3.952-3.902-5.766
									c-1.194-0.886-2.695-1.638-4.424-1.938c-1.717-0.289-3.653-0.23-5.494,0.474c-0.927,0.324-1.82,0.812-2.64,1.427
									c-0.83,0.604-1.583,1.353-2.204,2.22c-1.283,1.709-2.005,3.904-2.027,6.167c0.02,2.263,0.743,4.459,2.026,6.169
									c0.621,0.868,1.374,1.617,2.204,2.221c0.82,0.616,1.714,1.104,2.641,1.428c1.841,0.704,3.777,0.763,5.494,0.474
									c1.729-0.3,3.23-1.052,4.424-1.938c2.409-1.815,3.483-4.165,3.901-5.766C509.98,262.314,509.921,261.356,509.99,261.361
									c0,0,0.133,0.955-0.236,2.635c-0.365,1.645-1.411,4.092-3.875,6.009c-1.22,0.937-2.77,1.738-4.568,2.07
									c-1.785,0.32-3.805,0.276-5.737-0.447c-0.972-0.333-1.91-0.838-2.773-1.479c-0.872-0.629-1.665-1.411-2.319-2.318
									c-1.351-1.788-2.116-4.096-2.136-6.471c0.02-2.374,0.786-4.681,2.136-6.469c0.654-0.907,1.447-1.689,2.319-2.318
									c0.863-0.641,1.801-1.146,2.772-1.479c1.931-0.723,3.952-0.768,5.736-0.447c1.797,0.331,3.347,1.133,4.568,2.069
									c2.464,1.917,3.51,4.364,3.875,6.01C510.123,260.406,509.99,261.361,509.99,261.361z"/>
							</g>
						</g>
						<g>
							<g>
								<path style="fill:#FFFFFF;" d="M519.919,276.318c-0.084,0.117-2.842-1.715-6.161-4.091c-3.32-2.377-5.942-4.398-5.859-4.515
									c0.084-0.117,2.842,1.715,6.162,4.092C517.38,274.179,520.003,276.201,519.919,276.318z"/>
							</g>
						</g>
					</g>
				</g>
				<g>
					<rect x="261.382" y="258.295" style="fill:#EBEBEB;" width="186.849" height="10.742"/>
				</g>
			</g>
			<g>
				<g>
					<path style="fill:#263238;" d="M514.18,288.09c0,0,0.586-0.047,1.728-0.114c0.574-0.005,1.275-0.13,2.111-0.264
						c0.845-0.092,1.789-0.373,2.868-0.651c2.12-0.66,4.705-1.733,7.326-3.677c0.325-0.245,0.657-0.494,0.995-0.747
						c0.32-0.275,0.632-0.573,0.957-0.866c0.672-0.566,1.271-1.248,1.896-1.946c0.649-0.678,1.163-1.506,1.776-2.291
						c0.258-0.427,0.52-0.86,0.786-1.299l0.4-0.665l0.34-0.709c0.991-1.87,1.645-4.029,2.096-6.322
						c0.087-0.579,0.176-1.166,0.266-1.759c0.031-0.599,0.063-1.206,0.095-1.819c0.054-1.225,0.041-2.499,0.002-3.781
						c-0.075-5.123-2.005-10.724-6.008-15.204c-3.95-4.476-10.08-7.695-16.901-7.873c-6.823-0.068-14.057-0.008-21.641-0.019
						c-60.701,0.02-144.543,0.047-237.145,0.076c-5.737,0.007-11.384,2.169-15.605,5.938c-4.239,3.736-7.074,9.01-7.725,14.558
						c-0.138,0.686-0.121,1.387-0.169,2.081c-0.048,0.692-0.057,1.393-0.049,2.097c-0.017,1.41,0.042,2.792,0.167,4.169
						c0.281,2.757,1.136,5.429,2.366,7.877c2.478,4.898,6.665,8.865,11.631,11.004c2.482,1.065,5.132,1.69,7.8,1.871
						c1.33,0.095,2.682,0.083,4.029,0.08c1.346,0,2.689,0.001,4.029,0.001c5.359,0.001,10.666,0.002,15.918,0.004
						c10.504,0.003,20.786,0.006,30.818,0.009c40.129,0.021,76.265,0.04,106.615,0.056c30.343,0.035,54.898,0.063,71.876,0.083
						c8.48,0.021,15.067,0.038,19.542,0.049c2.229,0.011,3.93,0.02,5.082,0.026C513.593,288.072,514.18,288.09,514.18,288.09
						s-0.586,0.018-1.731,0.027c-1.152,0.006-2.853,0.015-5.082,0.026c-4.475,0.011-11.061,0.028-19.542,0.049
						c-16.978,0.02-41.533,0.048-71.876,0.083c-30.349,0.016-66.486,0.035-106.615,0.056c-10.033,0.003-20.315,0.006-30.818,0.009
						c-5.252,0.001-10.559,0.002-15.918,0.003c-1.34,0-2.683,0.001-4.029,0.001c-1.346,0.003-2.693,0.017-4.063-0.08
						c-2.725-0.184-5.433-0.821-7.97-1.91c-5.075-2.185-9.354-6.235-11.887-11.24c-1.258-2.502-2.132-5.233-2.42-8.05
						c-0.129-1.405-0.188-2.831-0.171-4.228c-0.008-0.701,0-1.405,0.049-2.118c0.049-0.709,0.033-1.425,0.173-2.126
						c0.666-5.671,3.562-11.062,7.893-14.881c4.313-3.852,10.089-6.064,15.95-6.07c92.602,0.03,176.444,0.057,237.145,0.076
						c7.589,0.023,14.808-0.025,21.652,0.056c6.916,0.193,13.121,3.471,17.108,8.01c4.043,4.544,5.979,10.216,6.039,15.393
						c0.035,1.296,0.044,2.552-0.013,3.793c-0.034,0.619-0.068,1.231-0.102,1.836c-0.092,0.599-0.184,1.191-0.274,1.776
						c-0.463,2.314-1.13,4.49-2.137,6.372c-0.116,0.24-0.231,0.478-0.346,0.714l-0.405,0.669c-0.27,0.442-0.535,0.877-0.797,1.306
						c-0.621,0.789-1.143,1.621-1.799,2.302c-0.633,0.701-1.24,1.384-1.918,1.952c-0.329,0.294-0.644,0.592-0.968,0.867
						c-0.341,0.254-0.676,0.503-1.005,0.748c-2.647,1.943-5.253,3.007-7.388,3.653c-1.086,0.272-2.036,0.545-2.885,0.629
						c-0.84,0.126-1.545,0.242-2.12,0.238C514.766,288.078,514.18,288.09,514.18,288.09z"/>
				</g>
			</g>
		</g>
	</g>
</g>
<g id="Character">
	<g>
		<g>
			<g>
				<g>
					<path style="fill:#FFBE9D;" d="M381.753,256.887c-0.909-1.06-1.001-1.957,1.045-2.141c4.512-0.406,7.836-2.376,8.361-3.516
						c0.524-1.141-0.906-2.255-2.129-1.569c-0.989,0.554-2.925,0.981-4.394,1.244c-1.211,0.217-2.449,0.241-3.661,0.05
						c-1.05-0.165-1.973-0.342-2.8-0.517c0,0-4.775-1.029-6.837-2.638l-10.099,10.793l4.737,5.352c0,0,2.261,3.382,6.325,2.981
						c4.064-0.401,9.528-3.318,9.528-3.318c0.739-1.134,7.281,2.9,9.388,4.413c2.081,1.495,3.664,1.132,3.585-0.323
						c-0.054-0.992-6.392-5.776-8.511-7.224C385.132,259.681,382.848,258.165,381.753,256.887"/>
				</g>
			</g>
			<g>
				<g>
					<path style="fill:#EB996E;" d="M375.817,266.264c0.011,0.061-0.291,0.19-0.813,0.176c-0.517-0.01-1.241-0.215-1.881-0.697
						c-0.639-0.484-1.033-1.125-1.184-1.62c-0.156-0.498-0.114-0.824-0.052-0.83c0.144-0.033,0.391,1.188,1.549,2.035
						C374.568,266.211,375.81,266.117,375.817,266.264z"/>
				</g>
			</g>
			<g>
				<g>
					<path style="fill:#EB996E;" d="M379.818,264.688c0.007,0.063-0.287,0.172-0.785,0.14c-0.494-0.028-1.179-0.241-1.785-0.71
						c-0.604-0.472-0.979-1.083-1.128-1.555c-0.153-0.475-0.12-0.787-0.057-0.795c0.145-0.035,0.413,1.116,1.505,1.939
						C378.634,264.563,379.816,264.539,379.818,264.688z"/>
				</g>
			</g>
		</g>
		<g>
			<path style="fill:#263238;" d="M390.706,152.429c0.422,8.862,11.23,21.001,19.269,22.964c4.226,1.032,9.089,0.547,12.437,3.386
				c5.743,4.87,2.384,14.964,6.258,21.496c2.382,4.015,7.111,5.985,9.79,9.799c4.451,6.338,1.463,15.916-4.611,20.636
				c-6.075,4.72-14.166,5.622-21.779,5.425c-16.746-0.433-33.895-5.755-46-17.626c-5.686-5.576-27.936-22.793-20.177-63.598"/>
		</g>
		<g>
			<path style="fill:#E8505B;" d="M451.15,215.835l-63.672-18.903c-5.277-2.242-9.273-2.791-9.273-2.791l-21.496,0.144
				c-2.92,0-5.668,0.628-8.246,1.725l-57.955,19.25c-4.289,1.357-7.252,5.756-7.252,10.766v0c0,6.176,4.452,11.184,9.944,11.184
				h26.763c-0.077,0.252-0.118,0.392-0.118,0.392l93.085,0.349c0-0.012-0.001-0.023-0.001-0.036l35.527,0.079
				c5.492,0,9.944-5.055,9.944-11.291C458.402,221.645,455.439,217.204,451.15,215.835z"/>
			<g>
				<g>
					<path style="fill:#263238;" d="M438.39,222.717c-0.003,0.018-0.202,0.007-0.577-0.03c-0.432-0.049-0.975-0.11-1.64-0.186
						c-1.421-0.18-3.482-0.41-6.029-0.655c-5.095-0.496-12.161-0.936-19.971-0.839c-7.812,0.108-14.865,0.732-19.945,1.362
						c-2.541,0.312-4.594,0.595-6.01,0.813c-0.663,0.093-1.204,0.168-1.634,0.229c-0.375,0.047-0.573,0.063-0.576,0.045
						c-0.003-0.018,0.189-0.068,0.558-0.148c0.426-0.086,0.962-0.193,1.619-0.325c1.407-0.279,3.456-0.618,5.995-0.978
						c5.079-0.724,12.15-1.409,19.987-1.517c7.834-0.097,14.92,0.402,20.016,0.993c2.549,0.293,4.605,0.578,6.02,0.821
						c0.66,0.115,1.199,0.208,1.627,0.283C438.199,222.654,438.393,222.7,438.39,222.717z"/>
				</g>
			</g>
			<g style="opacity:0.6;">
				<g>
					<path style="fill:#FFFFFF;" d="M423.449,207.247c0.006,0.006-0.054,0.079-0.178,0.214c-0.147,0.155-0.331,0.35-0.561,0.592
						c-0.503,0.511-1.244,1.264-2.251,2.183c-1.006,0.917-2.271,2.012-3.87,3.116c-1.6,1.083-3.555,2.214-5.945,2.833
						c-2.374,0.666-5.174,0.598-7.955-0.159c-2.799-0.75-5.557-2.164-8.376-3.7c-2.833-1.504-5.752-3.248-9.07-4.252
						c-3.277-1.085-7.044-1.051-10.371,0.534c-3.35,1.51-6.201,3.813-9.316,5.473c-0.771,0.43-1.587,0.761-2.377,1.119
						c-0.818,0.289-1.616,0.614-2.444,0.814c-1.633,0.479-3.289,0.724-4.905,0.846c-6.513,0.467-12.327-1.647-16.289-4.48
						c-2.003-1.428-3.523-3.045-4.919-4.369c-1.387-1.338-2.661-2.403-3.809-3.114c-2.32-1.434-3.938-1.366-3.902-1.462
						c0,0,0.38-0.007,1.087,0.129c0.708,0.126,1.737,0.465,2.919,1.16c1.183,0.696,2.493,1.753,3.904,3.076
						c1.422,1.31,2.954,2.899,4.932,4.28c3.925,2.75,9.654,4.787,16.043,4.302c1.585-0.127,3.207-0.372,4.804-0.846
						c0.811-0.198,1.59-0.519,2.39-0.803c0.772-0.353,1.567-0.676,2.324-1.1c3.061-1.634,5.909-3.946,9.346-5.499
						c3.417-1.637,7.389-1.671,10.732-0.546c3.398,1.038,6.325,2.805,9.15,4.318c2.81,1.546,5.528,2.954,8.263,3.705
						c2.718,0.756,5.425,0.844,7.748,0.218c2.337-0.581,4.275-1.669,5.874-2.718c1.597-1.069,2.874-2.135,3.898-3.026
						c1.023-0.891,1.787-1.621,2.312-2.107c0.244-0.227,0.44-0.409,0.597-0.554C423.37,207.301,423.443,207.241,423.449,207.247z"/>
				</g>
			</g>
			<g style="opacity:0.2;">
				<polygon points="324.51,222.589 364.756,230.177 360.107,237.749 358.883,237.768 				"/>
			</g>
			<g style="opacity:0.6;">
				<g>
					<path style="fill:#FFFFFF;" d="M446.338,214.637c0.018,0.001,0.024,0.212,0.02,0.617c-0.011,0.404-0.053,1.001-0.177,1.761
						c-0.253,1.509-0.87,3.717-2.424,6.022c-1.526,2.291-4.111,4.621-7.6,5.831c-1.729,0.611-3.661,0.955-5.664,0.885
						c-2.002-0.075-4.028-0.531-6.038-1.104c-2.015-0.568-3.951-1.195-5.863-1.581c-1.907-0.414-3.792-0.495-5.562-0.289
						c-3.551,0.426-6.549,1.903-8.678,3.554c-2.176,1.629-3.504,3.435-4.312,4.711c-0.191,0.319-0.364,0.608-0.52,0.868
						c-0.125,0.249-0.235,0.468-0.332,0.663c-0.183,0.358-0.288,0.543-0.304,0.536c-0.017-0.007,0.055-0.206,0.209-0.58
						c0.085-0.203,0.181-0.431,0.29-0.69c0.145-0.27,0.306-0.569,0.484-0.9c0.764-1.324,2.069-3.197,4.26-4.898
						c2.144-1.722,5.194-3.274,8.846-3.74c1.818-0.226,3.778-0.15,5.72,0.265c1.951,0.387,3.902,1.016,5.903,1.58
						c1.998,0.57,3.978,1.016,5.916,1.095c1.934,0.074,3.806-0.248,5.488-0.828c3.394-1.15,5.925-3.376,7.455-5.587
						c1.556-2.224,2.218-4.373,2.528-5.851C446.286,215.486,446.285,214.633,446.338,214.637z"/>
				</g>
			</g>
			<g>
				<g>
					<path style="fill:#E8505B;" d="M290.563,235.918c0,0,72.758,32.105,72.383,31.376c-0.375-0.729,11.552-21.785,11.552-21.785
						l-58.95-29.135L290.563,235.918z"/>
				</g>
				<g>
					<g>
						<path style="fill:#263238;" d="M323.961,220.532c0.016-0.032,0.549,0.193,1.499,0.628c1.028,0.484,2.376,1.12,4.004,1.887
							c3.371,1.613,8.012,3.875,13.124,6.401c5.113,2.527,9.73,4.841,13.06,6.54c1.599,0.828,2.923,1.513,3.932,2.036
							c0.924,0.491,1.427,0.778,1.412,0.811c-0.015,0.033-0.548-0.193-1.498-0.627c-1.027-0.484-2.376-1.119-4.003-1.886
							c-3.371-1.614-8.013-3.875-13.127-6.403c-5.112-2.527-9.729-4.841-13.059-6.539c-1.599-0.828-2.923-1.513-3.932-2.036
							C324.449,220.852,323.945,220.565,323.961,220.532z"/>
					</g>
				</g>
				<g style="opacity:0.6;">
					<g>
						<path style="fill:#FFFFFF;" d="M339.939,230.271c0,0-0.04,0.829-0.677,2.158c-0.615,1.324-2.025,3.061-4.339,4.337
							c-1.152,0.631-2.513,1.164-4.04,1.439c-1.529,0.275-3.201,0.29-4.921,0.058c-3.459-0.444-7.028-1.886-10.611-3.56
							c-3.584-1.678-7-3.295-10.319-4.07c-1.651-0.398-3.264-0.589-4.766-0.552c-1.505,0.038-2.896,0.308-4.114,0.695
							c-2.447,0.783-4.152,2.095-5.078,3.181c-0.945,1.084-1.263,1.84-1.318,1.808c0,0,0.246-0.789,1.163-1.939
							c0.898-1.15,2.618-2.55,5.117-3.399c1.244-0.42,2.668-0.719,4.215-0.777c1.549-0.057,3.203,0.124,4.89,0.517
							c3.392,0.766,6.852,2.391,10.429,4.065c3.573,1.67,7.084,3.099,10.456,3.557c1.678,0.239,3.303,0.24,4.781-0.008
							c1.482-0.247,2.811-0.745,3.941-1.338c2.269-1.199,3.679-2.842,4.335-4.107C339.76,231.068,339.876,230.253,339.939,230.271z"
							/>
					</g>
				</g>
				<g style="opacity:0.6;">
					<g>
						<path style="fill:#FFFFFF;" d="M370.83,252.277c-0.014,0.097-1.614-0.17-4.213-0.212c-1.299-0.029-2.846,0.045-4.55,0.231
							c-1.701,0.213-3.559,0.554-5.465,1.083c-1.902,0.549-3.662,1.233-5.223,1.944c-1.549,0.736-2.905,1.483-3.996,2.189
							c-2.191,1.399-3.412,2.465-3.475,2.39c-0.024-0.027,0.266-0.309,0.814-0.798c0.539-0.497,1.378-1.153,2.459-1.899
							c1.077-0.754,2.432-1.545,3.993-2.315c1.572-0.745,3.355-1.454,5.287-2.011c1.936-0.538,3.826-0.87,5.555-1.059
							c1.732-0.163,3.301-0.199,4.614-0.122c1.311,0.068,2.37,0.186,3.09,0.327C370.441,252.153,370.836,252.241,370.83,252.277z"/>
					</g>
				</g>
			</g>
			<g style="opacity:0.2;">
				<path d="M379.801,194.006c-1.203,3.366,0.603,6.992,2.356,10.107c1.219,2.168,2.461,4.365,4.219,6.124
					c1.758,1.759,4.13,3.055,6.616,2.973c3.266-0.107,6.192-2.52,9.454-2.332c2.219,0.128,4.169,1.439,6.011,2.684
					c3.193,2.157,6.467,4.263,10.086,5.587c3.618,1.324,7.648,1.823,11.337,0.712c3.689-1.111,6.95-4.02,7.846-7.768"/>
			</g>
		</g>
		<g>
			<g>
				<g>
					<g>
						<path style="fill:#FFBE9D;" d="M380.075,193.078c0.168-3.917,0.379-7.462,0.379-7.462s8.754-1.104,9.132-10.039
							c0.377-8.936-0.511-29.511-0.511-29.511l-16.113-7.738l-17.335,13.966l2.719,41.037c0.392,5.913,5.442,10.425,11.362,10.151
							l0,0C375.334,203.222,379.834,198.707,380.075,193.078z"/>
					</g>
					<g>
						<g>
							<path style="fill:#263238;" d="M387.563,162.223c0.011,0.631-0.479,1.15-1.094,1.161c-0.614,0.011-1.122-0.491-1.133-1.123
								c-0.011-0.631,0.479-1.151,1.093-1.162C387.045,161.089,387.552,161.592,387.563,162.223z"/>
						</g>
						<g>
							<g>
								<path style="fill:#263238;" d="M388.644,159.837c-0.141,0.15-0.975-0.553-2.175-0.598c-1.198-0.063-2.089,0.562-2.217,0.399
									c-0.063-0.072,0.082-0.347,0.47-0.631c0.382-0.282,1.03-0.546,1.778-0.512c0.747,0.035,1.371,0.355,1.728,0.671
									C388.592,159.483,388.713,159.77,388.644,159.837z"/>
							</g>
						</g>
					</g>
					<g>
						<g>
							<path style="fill:#263238;" d="M374.278,162.223c0.011,0.631-0.479,1.15-1.094,1.161c-0.614,0.011-1.122-0.491-1.132-1.123
								c-0.011-0.631,0.479-1.151,1.093-1.162C373.759,161.089,374.267,161.592,374.278,162.223z"/>
						</g>
						<g>
							<g>
								<path style="fill:#263238;" d="M375.359,160.067c-0.141,0.15-0.976-0.553-2.175-0.598c-1.198-0.063-2.089,0.562-2.217,0.4
									c-0.063-0.072,0.081-0.347,0.471-0.631c0.382-0.283,1.03-0.546,1.777-0.513c0.747,0.035,1.372,0.355,1.728,0.671
									C375.306,159.713,375.428,160,375.359,160.067z"/>
							</g>
						</g>
					</g>
					<g>
						<g>
							<path style="fill:#263238;" d="M379.863,170.38c-0.004-0.073,0.744-0.181,1.955-0.298c0.307-0.022,0.598-0.075,0.653-0.297
								c0.076-0.234-0.047-0.593-0.189-0.981c-0.276-0.806-0.564-1.65-0.867-2.535c-1.202-3.607-2.067-6.568-1.932-6.616
								c0.135-0.048,1.219,2.837,2.422,6.445c0.289,0.889,0.566,1.737,0.829,2.548c0.11,0.377,0.303,0.808,0.139,1.294
								c-0.086,0.242-0.314,0.411-0.511,0.459c-0.197,0.056-0.37,0.053-0.521,0.056C380.621,170.478,379.866,170.454,379.863,170.38
								z"/>
						</g>
					</g>
					<g>
						<path style="fill:#FFFFFF;" d="M375.924,171.613c-1.227-0.805,3.385,1.989,5.83,1.946c0,0-1.471,2.252-3.953,1.226
							C375.224,173.721,375.924,171.613,375.924,171.613z"/>
					</g>
					<g>
						<path style="fill:#EB996E;" d="M380.453,185.616c0,0-5.856,0.168-11.592-3.795c0,0,2.725,6.508,11.44,5.988L380.453,185.616z"
							/>
					</g>
					<g>
						<path style="fill:#263238;" d="M346.223,161.099L346.223,161.099c-0.03,7.734-2.056,28.183,12.041,31.02l-0.512-28.164
							c0,0,13.65-6.436,15.955-19.842l0.083,0.076c0.874,2.023,2.431,6.369,1.485,9.908l12.782,3.15l1.471,1.346
							c0,0,4.552-9.974-4.23-19.021c-8.782-9.048-16.285-2.491-20.993-3.056c-3.131-0.376-13.989-0.303-18.412,18.395
							L346.223,161.099z"/>
					</g>
				</g>
			</g>
			<g>
				<g>
					<g>
						<path style="fill:#FFBE9D;" d="M358.102,164.27c-1.191-0.735-2.818-0.13-3.764,0.902c-1.488,1.624-1.747,4.248-0.605,6.131
							c1.142,1.883,3.588,2.868,5.716,2.299"/>
					</g>
					<g>
						<g>
							<path style="fill:#EB996E;" d="M357.827,170.925c-0.002,0.063-0.4,0.132-1.024-0.036c-0.594-0.158-1.517-0.634-1.87-1.659
								c-0.173-0.496-0.14-1.04,0.053-1.458c0.189-0.42,0.489-0.706,0.762-0.888c0.563-0.362,0.99-0.336,0.996-0.278
								c0.022,0.079-0.35,0.19-0.771,0.57c-0.425,0.36-0.835,1.095-0.546,1.888c0.264,0.79,0.982,1.247,1.501,1.478
								C357.459,170.78,357.835,170.846,357.827,170.925z"/>
						</g>
					</g>
				</g>
				<g>
					<path style="fill:#E8505B;" d="M356.66,172.686c-0.648,0.153-0.98,1.046-0.589,1.585c0.391,0.539,1.343,0.501,1.689-0.068
						c0.346-0.568-0.056-1.432-0.714-1.532"/>
				</g>
			</g>
		</g>
		<g>
			<path style="fill:#FFBE9D;" d="M382.564,237.995v-14.687c0,0-21.81,4.525-22.21,14.513L382.564,237.995z"/>
		</g>
		<g>
			<path style="fill:#263238;" d="M380.294,191.532c0.358,4.474,2.432,8.789,5.703,11.862c3.271,3.073,7.706,4.875,12.193,4.954
				c3.22,0.056,6.614-0.709,9.553,0.606c2.556,1.144,4.201,3.621,6.215,5.568c4.724,4.568,12.056,6.226,18.286,4.135
				c2.641-0.886,6.838-2.785,7.329-5.526c0.374-2.089-2.179-4.165-3.684-5.661c-1.505-1.496-3.45-2.456-5.371-3.358
				c-15.536-7.297-32.214-12.605-49.354-13.511"/>
		</g>
	</g>
</g>
</svg>
